<svg xmlns="http://www.w3.org/2000/svg" width="32.743" height="26.263" viewBox="0 0 32.743 26.263">
  <g id="Group_62" data-name="Group 62" transform="translate(2396 -1698)">
    <g id="chat-bubbles-with-ellipsis" transform="translate(-2403 1733.76)">
      <path id="Path_517" data-name="Path 517" d="M-1539.819,695.321l-1.092,3.989,6.626-3.814Z" transform="translate(1551 -712.76)" fill="none" stroke="#fff" stroke-width="1"/>
      <rect id="Rectangle_181" data-name="Rectangle 181" width="28" height="19" rx="3" transform="translate(7 -35.76)" fill="#fff"/>
      <g id="Group_63" data-name="Group 63" transform="translate(8 -38)">
        <path id="Path_518" data-name="Path 518" d="M28.585,9.67h-.842v9.255a2.506,2.506,0,0,1-2.521,2.744H8.743v.44a2.968,2.968,0,0,0,2.937,2.56h12.6L29.1,27.5l-.7-2.834h.185c1.487,0,2.158-1.283,2.158-2.56V11.867A1.983,1.983,0,0,0,28.585,9.67Z" transform="translate(1 1)" fill="#393939"/>
        <path id="Path_516" data-name="Path 516" d="M22.762,3.24H3.622C1.938,3.24,0,4.736,0,6.178v11.6c0,1.328,1.642,2.287,3.217,2.435L2.192,24.1,8.76,20.24h14c1.684,0,3.238-1.021,3.238-2.462V6.178A3.305,3.305,0,0,0,22.762,3.24ZM6.542,13.032A1.729,1.729,0,1,1,8.271,11.3,1.729,1.729,0,0,1,6.542,13.032Zm6.458,0A1.729,1.729,0,1,1,14.729,11.3,1.729,1.729,0,0,1,13,13.032Zm6.459,0A1.729,1.729,0,1,1,21.188,11.3,1.73,1.73,0,0,1,19.459,13.032Z"/>
        <path id="Path_519" data-name="Path 519" d="M28.585,9.67h-.842v9.255a2.506,2.506,0,0,1-2.521,2.744H8.743v.44a2.968,2.968,0,0,0,2.937,2.56h12.6L29.1,27.5l-.7-2.834h.185c1.487,0,2.158-1.283,2.158-2.56V11.867A1.983,1.983,0,0,0,28.585,9.67Z"/>
      </g>
    </g>
  </g>
</svg>
