<svg xmlns="http://www.w3.org/2000/svg" width="233.169" height="146.098" viewBox="0 0 233.169 146.098">
  <g id="undraw_content_team_3epn" transform="translate(2.679 0)" opacity="0.9" style="mix-blend-mode: lighten;isolation: isolate">
    <path id="Path_487" data-name="Path 487" d="M434.073,690.538H237.6a6.588,6.588,0,0,1-6.588-6.588h0q106.834-12.416,209.653,0h0A6.588,6.588,0,0,1,434.073,690.538Z" transform="translate(-214.372 -544.439)" fill="#ccc"/>
    <path id="Path_488" data-name="Path 488" d="M440.661,313.79,231.008,313.4l24.3-40.884.116-.194v-90.1a8.327,8.327,0,0,1,8.329-8.328H406.756a8.327,8.327,0,0,1,8.328,8.329v90.724Z" transform="translate(-214.372 -173.893)" fill="#e6e6e6"/>
    <path id="Path_489" data-name="Path 489" d="M346.508,195.864a2.716,2.716,0,0,0-2.713,2.713v82.156a2.716,2.716,0,0,0,2.713,2.713H491.056a2.716,2.716,0,0,0,2.713-2.713V198.577a2.716,2.716,0,0,0-2.713-2.713Z" transform="translate(-297.319 -190.051)" fill="#fff"/>
    <path id="Path_490" data-name="Path 490" d="M333.595,567.913a1.166,1.166,0,0,0-1.056.677l-7.487,16.276a1.162,1.162,0,0,0,1.056,1.648H483.555a1.162,1.162,0,0,0,1.04-1.682l-8.138-16.276a1.156,1.156,0,0,0-1.039-.643Z" transform="translate(-283.456 -463.668)" fill="#ccc"/>
    <circle id="Ellipse_284" data-name="Ellipse 284" cx="1.744" cy="1.744" r="1.744" transform="translate(119.138 0.969)" fill="#fff"/>
    <path id="Path_491" data-name="Path 491" d="M558.082,649.94a1.164,1.164,0,0,0-1.122.86l-1.878,6.975a1.163,1.163,0,0,0,1.123,1.465H591.92a1.162,1.162,0,0,0,1.1-1.543l-2.414-6.975a1.163,1.163,0,0,0-1.1-.782Z" transform="translate(-452.676 -523.993)" fill="#ccc"/>
    <path id="Path_492" data-name="Path 492" d="M321.947,366.922v1.55H162.169l.12-.194v-1.356Z" transform="translate(-121.234 -269.846)" fill="#ccc"/>
    <path id="Path_493" data-name="Path 493" d="M850.169,554.237a.284.284,0,0,0-.273.209l-.457,1.7a.283.283,0,0,0,.273.357h8.7a.283.283,0,0,0,.267-.376l-.588-1.7a.283.283,0,0,0-.268-.19Z" transform="translate(-669.178 -453.61)" fill="#ccc"/>
    <path id="Path_494" data-name="Path 494" d="M802.169,554.237a.284.284,0,0,0-.273.209l-.457,1.7a.283.283,0,0,0,.273.357h8.7a.283.283,0,0,0,.267-.376l-.588-1.7a.283.283,0,0,0-.267-.19Z" transform="translate(-633.877 -453.61)" fill="#ccc"/>
    <path id="Path_495" data-name="Path 495" d="M613.369,341.758h.682l-1.363-91.114h-.682l.027,1.818H596.755l.027-1.818H596.1l-1.363,91.114h.682l.088-5.908h17.773Zm-.983-65.666H596.4l.167-11.134H612.22Zm.01.682.167,11.134H596.225l.167-11.134Zm.177,11.815.167,11.134H596.048l.167-11.134Zm.177,11.815.167,11.134H595.871l.167-11.134Zm.177,11.815.167,11.134h-17.4l.167-11.134Zm-.884-59.076.167,11.134H596.579l.167-11.134Zm-16.526,82.025.167-11.134H613.1l.167,11.134Z" transform="translate(-481.87 -230.338)" fill="#3f3d56"/>
    <circle id="Ellipse_285" data-name="Ellipse 285" cx="11.115" cy="11.115" r="11.115" transform="translate(108.032 29.458)" fill="#2f2e41"/>
    <rect id="Rectangle_170" data-name="Rectangle 170" width="3.377" height="6.05" transform="translate(122.363 48.857) rotate(-10.261)" fill="#2f2e41"/>
    <rect id="Rectangle_171" data-name="Rectangle 171" width="3.377" height="6.05" transform="translate(115.718 50.06) rotate(-10.261)" fill="#2f2e41"/>
    <ellipse id="Ellipse_286" data-name="Ellipse 286" cx="2.814" cy="1.055" rx="2.814" ry="1.055" transform="matrix(0.763, -0.646, 0.646, 0.763, 115.048, 57.474)" fill="#2f2e41"/>
    <ellipse id="Ellipse_287" data-name="Ellipse 287" cx="2.814" cy="1.055" rx="2.814" ry="1.055" transform="matrix(0.763, -0.646, 0.646, 0.763, 121.555, 56.296)" fill="#2f2e41"/>
    <circle id="Ellipse_288" data-name="Ellipse 288" cx="3.799" cy="3.799" r="3.799" transform="translate(114.571 34.056)" fill="#fff"/>
    <circle id="Ellipse_289" data-name="Ellipse 289" cx="1.266" cy="1.266" r="1.266" transform="translate(115.542 35.227)" fill="#3f3d56"/>
    <path id="Path_496" data-name="Path 496" d="M605.877,259.884c.167-4.115-3.379-7.6-7.921-7.785s-8.359,3-8.527,7.117,2.99,5.05,7.532,5.234S605.71,264,605.877,259.884Z" transform="translate(-477.961 -231.403)" fill="#f9a826"/>
    <ellipse id="Ellipse_290" data-name="Ellipse 290" cx="1.745" cy="5.558" rx="1.745" ry="5.558" transform="matrix(0.223, -0.975, 0.975, 0.223, 103.077, 39.008)" fill="#2f2e41"/>
    <ellipse id="Ellipse_291" data-name="Ellipse 291" cx="1.745" cy="5.558" rx="1.745" ry="5.558" transform="matrix(0.223, -0.975, 0.975, 0.223, 124.896, 42.636)" fill="#2f2e41"/>
    <path id="Path_497" data-name="Path 497" d="M616.057,340.136a2.533,2.533,0,1,1-4.983.907v0c-.249-1.376.815-1.863,2.191-2.112S615.808,338.76,616.057,340.136Z" transform="translate(-493.857 -295.182)" fill="#fff"/>
    <ellipse id="Ellipse_292" data-name="Ellipse 292" cx="5.697" cy="1.788" rx="5.697" ry="1.788" transform="matrix(0.357, -0.934, 0.934, 0.357, 76.126, 82.37)" fill="#2f2e41"/>
    <circle id="Ellipse_293" data-name="Ellipse 293" cx="11.394" cy="11.394" r="11.394" transform="translate(56.227 95.712) rotate(-80.783)" fill="#2f2e41"/>
    <rect id="Rectangle_172" data-name="Rectangle 172" width="3.462" height="6.202" transform="translate(64.107 95.233)" fill="#2f2e41"/>
    <rect id="Rectangle_173" data-name="Rectangle 173" width="3.462" height="6.202" transform="translate(71.03 95.233)" fill="#2f2e41"/>
    <ellipse id="Ellipse_294" data-name="Ellipse 294" cx="2.885" cy="1.082" rx="2.885" ry="1.082" transform="translate(64.107 100.425)" fill="#2f2e41"/>
    <ellipse id="Ellipse_295" data-name="Ellipse 295" cx="2.885" cy="1.082" rx="2.885" ry="1.082" transform="translate(71.03 100.281)" fill="#2f2e41"/>
    <path id="Path_498" data-name="Path 498" d="M387.814,433.522c-.92-4.12,2.021-8.284,6.569-9.3s8.981,1.5,9.9,5.622-2.094,5.64-6.642,6.655S388.734,437.642,387.814,433.522Z" transform="translate(-329.568 -357.828)" fill="#f9a826"/>
    <ellipse id="Ellipse_296" data-name="Ellipse 296" cx="1.788" cy="5.697" rx="1.788" ry="5.697" transform="translate(50.552 80.178) rotate(-64.626)" fill="#2f2e41"/>
    <circle id="Ellipse_297" data-name="Ellipse 297" cx="11.394" cy="11.394" r="11.394" transform="translate(8.569 86.433)" fill="#2f2e41"/>
    <rect id="Rectangle_174" data-name="Rectangle 174" width="3.462" height="6.202" transform="translate(14.77 106.77)" fill="#2f2e41"/>
    <rect id="Rectangle_175" data-name="Rectangle 175" width="3.462" height="6.202" transform="translate(21.694 106.77)" fill="#2f2e41"/>
    <ellipse id="Ellipse_298" data-name="Ellipse 298" cx="2.885" cy="1.082" rx="2.885" ry="1.082" transform="translate(14.77 111.962)" fill="#2f2e41"/>
    <ellipse id="Ellipse_299" data-name="Ellipse 299" cx="2.885" cy="1.082" rx="2.885" ry="1.082" transform="translate(21.694 111.818)" fill="#2f2e41"/>
    <circle id="Ellipse_300" data-name="Ellipse 300" cx="3.894" cy="3.894" r="3.894" transform="translate(16.357 91.049)" fill="#fff"/>
    <circle id="Ellipse_301" data-name="Ellipse 301" cx="1.298" cy="1.298" r="1.298" transform="translate(18.953 93.645)" fill="#3f3d56"/>
    <path id="Path_499" data-name="Path 499" d="M201.336,477.129c-.92-4.12,2.021-8.284,6.569-9.3s8.981,1.5,9.9,5.622-2.094,5.64-6.642,6.655S202.256,481.25,201.336,477.129Z" transform="translate(-192.426 -389.898)" fill="#e6e6e6"/>
    <ellipse id="Ellipse_302" data-name="Ellipse 302" cx="5.697" cy="1.788" rx="5.697" ry="1.788" transform="matrix(0.357, -0.934, 0.934, 0.357, 22.895, 61.166)" fill="#2f2e41"/>
    <circle id="Ellipse_303" data-name="Ellipse 303" cx="11.394" cy="11.394" r="11.394" transform="translate(2.996 74.509) rotate(-80.783)" fill="#2f2e41"/>
    <rect id="Rectangle_176" data-name="Rectangle 176" width="3.462" height="6.202" transform="translate(10.876 74.029)" fill="#2f2e41"/>
    <rect id="Rectangle_177" data-name="Rectangle 177" width="3.462" height="6.202" transform="translate(17.799 74.029)" fill="#2f2e41"/>
    <ellipse id="Ellipse_304" data-name="Ellipse 304" cx="2.885" cy="1.082" rx="2.885" ry="1.082" transform="translate(10.876 79.222)" fill="#2f2e41"/>
    <ellipse id="Ellipse_305" data-name="Ellipse 305" cx="2.885" cy="1.082" rx="2.885" ry="1.082" transform="translate(17.799 79.077)" fill="#2f2e41"/>
    <circle id="Ellipse_306" data-name="Ellipse 306" cx="3.894" cy="3.894" r="3.894" transform="translate(12.463 58.308)" fill="#fff"/>
    <circle id="Ellipse_307" data-name="Ellipse 307" cx="1.298" cy="1.298" r="1.298" transform="translate(15.059 60.904)" fill="#3f3d56"/>
    <path id="Path_500" data-name="Path 500" d="M186.616,353.379c-.92-4.12,2.021-8.284,6.569-9.3s8.981,1.5,9.9,5.622-2.094,5.64-6.642,6.655S187.536,357.5,186.616,353.379Z" transform="translate(-181.601 -298.888)" fill="#f9a826"/>
    <ellipse id="Ellipse_308" data-name="Ellipse 308" cx="1.788" cy="5.697" rx="1.788" ry="5.697" transform="translate(-2.679 58.975) rotate(-64.626)" fill="#2f2e41"/>
    <path id="Path_501" data-name="Path 501" d="M207.707,431.6c0,1.115,2.871,3.317,6.058,3.317s6.174-3.14,6.174-4.255-2.987.216-6.174.216S207.707,430.484,207.707,431.6Z" transform="translate(-197.235 -362.401)" fill="#fff"/>
    <path id="Path_502" data-name="Path 502" d="M269,255.461a.8.8,0,0,0-.794.794v32.806a.8.8,0,0,0,.794.794h75.931a.8.8,0,0,0,.794-.794V256.255a.8.8,0,0,0-.794-.794Z" transform="translate(-241.726 -233.881)" fill="#f9a826"/>
    <circle id="Ellipse_309" data-name="Ellipse 309" cx="7.705" cy="7.705" r="7.705" transform="translate(40.069 31.073)" fill="#fff"/>
    <path id="Path_40" data-name="Path 40" d="M411.919,316.586a.9.9,0,1,0,0,1.8h24.326a.9.9,0,0,0,.03-1.8H411.919Z" transform="translate(-346.757 -278.834)" fill="#fff"/>
    <path id="Path_40-2" data-name="Path 40" d="M411.919,296.859a.9.9,0,1,0,0,1.8h12.148a.9.9,0,1,0,.03-1.8H411.919Z" transform="translate(-346.757 -264.326)" fill="#fff"/>
    <path id="Path_40-3" data-name="Path 40" d="M411.919,337.253a.9.9,0,1,0,0,1.8h24.326a.9.9,0,0,0,.03-1.8H411.919Z" transform="translate(-346.757 -294.033)" fill="#fff"/>
    <ellipse id="Ellipse_310" data-name="Ellipse 310" cx="1.788" cy="5.697" rx="1.788" ry="5.697" transform="matrix(0.934, -0.357, 0.357, 0.934, 177.565, 93.897)" fill="#2f2e41"/>
    <circle id="Ellipse_311" data-name="Ellipse 311" cx="11.394" cy="11.394" r="11.394" transform="translate(176.349 100.145) rotate(-9.217)" fill="#2f2e41"/>
    <path id="Path_503" data-name="Path 503" d="M733.413,447.932h-3.461l.677,7.427,2.79-.758Z" transform="translate(-538.8 -329.424)" fill="#2f2e41"/>
    <path id="Path_504" data-name="Path 504" d="M704.89,448.005h-3.462l.677,7.427,2.664-.777Z" transform="translate(-517.823 -329.477)" fill="#2f2e41"/>
    <ellipse id="Ellipse_312" data-name="Ellipse 312" cx="2.885" cy="1.082" rx="2.885" ry="1.082" transform="translate(181.15 124.357) rotate(-4.182)" fill="#2f2e41"/>
    <circle id="Ellipse_313" data-name="Ellipse 313" cx="3.894" cy="3.894" r="3.894" transform="translate(185.238 102.787)" fill="#fff"/>
    <circle id="Ellipse_314" data-name="Ellipse 314" cx="1.298" cy="1.298" r="1.298" transform="translate(187.834 105.383)" fill="#3f3d56"/>
    <ellipse id="Ellipse_315" data-name="Ellipse 315" cx="5.697" cy="1.788" rx="5.697" ry="1.788" transform="translate(196.636 105.154) rotate(-53.55)" fill="#2f2e41"/>
    <path id="Path_505" data-name="Path 505" d="M863.077,602.631c0-.919,2.367-2.734,4.993-2.734s5.088,2.588,5.088,3.507-2.462-.178-5.088-.178S863.077,603.55,863.077,602.631Z" transform="translate(-679.215 -487.19)" fill="#fff"/>
    <path id="Path_506" data-name="Path 506" d="M827.041,377.559l-62.371-8.646a1.854,1.854,0,0,1-1.58-2.089l7.012-50.578a1.854,1.854,0,0,1,2.089-1.58l62.371,8.646a1.854,1.854,0,0,1,1.58,2.089l-7.012,50.578a1.854,1.854,0,0,1-2.089,1.58Z" transform="translate(-605.669 -277.409)" fill="#f9a826"/>
    <path id="Path_507" data-name="Path 507" d="M831.562,412.559l-31.842-4.414a.658.658,0,0,1-.118-.026l18.676-24a1.064,1.064,0,0,1,1.835.254l7.68,18.907.368.9Z" transform="translate(-632.534 -328.194)" fill="#fff"/>
    <path id="Path_508" data-name="Path 508" d="M729.5,293.092l-10.872-1.507,6.412-7.012.462-.505.231-.253.368.9Z" transform="translate(-530.474 -208.727)" opacity="0.2" style="isolation: isolate"/>
    <path id="Path_509" data-name="Path 509" d="M910.859,444.064l-27.541-3.818,6.411-7.012.461-.505,8.355-9.138a1.421,1.421,0,0,1,2.106.165,1.273,1.273,0,0,1,.083.139Z" transform="translate(-694.101 -357.241)" fill="#fff"/>
    <circle id="Ellipse_316" data-name="Ellipse 316" cx="4.762" cy="4.762" r="4.762" transform="translate(194.653 54.55)" fill="#fff"/>
    <rect id="Rectangle_178" data-name="Rectangle 178" width="5.82" height="5.82" transform="translate(167.585 41.145) rotate(7.893)" fill="#3f3d56"/>
    <path id="Path_510" data-name="Path 510" d="M879.626,521.5c.92-4.12-2.021-8.284-6.569-9.3s-8.98,1.5-9.9,5.622,2.094,5.64,6.642,6.655S878.706,525.619,879.626,521.5Z" transform="translate(-679.152 -422.528)" fill="#f2f2f2"/>
    <ellipse id="Ellipse_317" data-name="Ellipse 317" cx="2.885" cy="1.082" rx="2.885" ry="1.082" transform="translate(188.741 124.338) rotate(-4.182)" fill="#2f2e41"/>
  </g>
</svg>
